<mxfile host="app.diagrams.net" modified="2021-01-10T22:05:49.745Z" agent="5.0 (Windows NT 10.0; Win64; x64) AppleWebKit/537.36 (KHTML, like Gecko) Chrome/87.0.4280.88 Safari/537.36 OPR/73.0.3856.329" etag="HpZ_6r65ey-BdjQwU4Tg" version="14.1.8" type="github">
  <diagram id="KAxdcWq9AbXUiTU3IXgu" name="Page-1">
    <mxGraphModel dx="832" dy="457" grid="1" gridSize="10" guides="1" tooltips="1" connect="1" arrows="1" fold="1" page="1" pageScale="1" pageWidth="850" pageHeight="1100" math="0" shadow="0">
      <root>
        <mxCell id="0" />
        <mxCell id="1" parent="0" />
        <mxCell id="UovKf8QnrQQs7tS_15B4-14" value="" style="edgeStyle=orthogonalEdgeStyle;rounded=0;orthogonalLoop=1;jettySize=auto;html=1;" parent="1" source="IeFlRRW-avanmvU46MZ_-1" target="UovKf8QnrQQs7tS_15B4-9" edge="1">
          <mxGeometry relative="1" as="geometry" />
        </mxCell>
        <mxCell id="IeFlRRW-avanmvU46MZ_-1" value="" style="ellipse;whiteSpace=wrap;html=1;aspect=fixed;" parent="1" vertex="1">
          <mxGeometry x="70" y="115" width="20" height="20" as="geometry" />
        </mxCell>
        <mxCell id="UovKf8QnrQQs7tS_15B4-11" value="" style="edgeStyle=orthogonalEdgeStyle;rounded=0;orthogonalLoop=1;jettySize=auto;html=1;" parent="1" source="UovKf8QnrQQs7tS_15B4-9" target="UovKf8QnrQQs7tS_15B4-10" edge="1">
          <mxGeometry relative="1" as="geometry" />
        </mxCell>
        <mxCell id="UovKf8QnrQQs7tS_15B4-9" value="Controller (PID)&amp;nbsp;" style="rounded=0;whiteSpace=wrap;html=1;" parent="1" vertex="1">
          <mxGeometry x="170" y="110" width="110" height="30" as="geometry" />
        </mxCell>
        <mxCell id="UovKf8QnrQQs7tS_15B4-13" value="" style="edgeStyle=orthogonalEdgeStyle;rounded=0;orthogonalLoop=1;jettySize=auto;html=1;" parent="1" source="UovKf8QnrQQs7tS_15B4-10" target="UovKf8QnrQQs7tS_15B4-12" edge="1">
          <mxGeometry relative="1" as="geometry" />
        </mxCell>
        <mxCell id="UovKf8QnrQQs7tS_15B4-10" value="Power Amplifier" style="whiteSpace=wrap;html=1;rounded=0;" parent="1" vertex="1">
          <mxGeometry x="325" y="107.5" width="115" height="35" as="geometry" />
        </mxCell>
        <mxCell id="UovKf8QnrQQs7tS_15B4-19" value="" style="edgeStyle=orthogonalEdgeStyle;rounded=0;orthogonalLoop=1;jettySize=auto;html=1;entryX=1;entryY=0.5;entryDx=0;entryDy=0;" parent="1" source="UovKf8QnrQQs7tS_15B4-12" target="UovKf8QnrQQs7tS_15B4-20" edge="1">
          <mxGeometry relative="1" as="geometry">
            <mxPoint x="730" y="125" as="targetPoint" />
            <Array as="points">
              <mxPoint x="670" y="125" />
              <mxPoint x="670" y="198" />
            </Array>
          </mxGeometry>
        </mxCell>
        <mxCell id="UovKf8QnrQQs7tS_15B4-12" value="Separately Excited DC Motor" style="whiteSpace=wrap;html=1;rounded=0;" parent="1" vertex="1">
          <mxGeometry x="520" y="107.5" width="120" height="35" as="geometry" />
        </mxCell>
        <mxCell id="UovKf8QnrQQs7tS_15B4-46" style="edgeStyle=orthogonalEdgeStyle;rounded=0;orthogonalLoop=1;jettySize=auto;html=1;entryX=0.5;entryY=1;entryDx=0;entryDy=0;" parent="1" source="UovKf8QnrQQs7tS_15B4-20" target="IeFlRRW-avanmvU46MZ_-1" edge="1">
          <mxGeometry relative="1" as="geometry">
            <mxPoint x="100" y="140" as="targetPoint" />
            <Array as="points">
              <mxPoint x="80" y="198" />
            </Array>
          </mxGeometry>
        </mxCell>
        <mxCell id="UovKf8QnrQQs7tS_15B4-20" value="Transducer" style="whiteSpace=wrap;html=1;rounded=0;" parent="1" vertex="1">
          <mxGeometry x="167.5" y="180" width="115" height="35" as="geometry" />
        </mxCell>
        <mxCell id="UovKf8QnrQQs7tS_15B4-24" value="" style="endArrow=classic;html=1;entryX=0;entryY=0.5;entryDx=0;entryDy=0;" parent="1" target="IeFlRRW-avanmvU46MZ_-1" edge="1">
          <mxGeometry width="50" height="50" relative="1" as="geometry">
            <mxPoint x="10" y="125" as="sourcePoint" />
            <mxPoint x="40" y="130" as="targetPoint" />
            <Array as="points" />
          </mxGeometry>
        </mxCell>
        <mxCell id="UovKf8QnrQQs7tS_15B4-25" value="Ref" style="text;html=1;align=center;verticalAlign=middle;resizable=0;points=[];autosize=1;" parent="1" vertex="1">
          <mxGeometry x="20" y="100" width="30" height="20" as="geometry" />
        </mxCell>
        <mxCell id="UovKf8QnrQQs7tS_15B4-26" value="+" style="text;html=1;align=center;verticalAlign=middle;resizable=0;points=[];autosize=1;" parent="1" vertex="1">
          <mxGeometry x="60" y="100" width="20" height="20" as="geometry" />
        </mxCell>
        <mxCell id="UovKf8QnrQQs7tS_15B4-27" value="-" style="text;html=1;align=center;verticalAlign=middle;resizable=0;points=[];autosize=1;" parent="1" vertex="1">
          <mxGeometry x="60" y="135" width="20" height="20" as="geometry" />
        </mxCell>
        <mxCell id="UovKf8QnrQQs7tS_15B4-54" value="" style="endArrow=classic;html=1;" parent="1" edge="1">
          <mxGeometry width="50" height="50" relative="1" as="geometry">
            <mxPoint x="670" y="125" as="sourcePoint" />
            <mxPoint x="770" y="124.58" as="targetPoint" />
          </mxGeometry>
        </mxCell>
        <mxCell id="UovKf8QnrQQs7tS_15B4-55" value="" style="endArrow=none;dashed=1;html=1;dashPattern=1 3;strokeWidth=2;" parent="1" edge="1">
          <mxGeometry width="50" height="50" relative="1" as="geometry">
            <mxPoint x="320" y="260" as="sourcePoint" />
            <mxPoint x="320" y="50" as="targetPoint" />
          </mxGeometry>
        </mxCell>
        <mxCell id="UovKf8QnrQQs7tS_15B4-56" value="Physical Variables" style="text;html=1;strokeColor=none;fillColor=none;align=center;verticalAlign=middle;whiteSpace=wrap;rounded=0;" parent="1" vertex="1">
          <mxGeometry x="410" y="215" width="130" height="20" as="geometry" />
        </mxCell>
        <mxCell id="UovKf8QnrQQs7tS_15B4-57" value="Information Variables" style="text;html=1;strokeColor=none;fillColor=none;align=center;verticalAlign=middle;whiteSpace=wrap;rounded=0;" parent="1" vertex="1">
          <mxGeometry x="140" y="230" width="140" height="20" as="geometry" />
        </mxCell>
        <mxCell id="q8FzyQfyh0SBN9-p7T6c-1" value="Velocity (in RPM)" style="text;html=1;align=center;verticalAlign=middle;resizable=0;points=[];autosize=1;" vertex="1" parent="1">
          <mxGeometry x="650" y="100" width="110" height="20" as="geometry" />
        </mxCell>
        <mxCell id="q8FzyQfyh0SBN9-p7T6c-2" value="in RPM" style="text;html=1;align=center;verticalAlign=middle;resizable=0;points=[];autosize=1;" vertex="1" parent="1">
          <mxGeometry x="10" y="130" width="50" height="20" as="geometry" />
        </mxCell>
      </root>
    </mxGraphModel>
  </diagram>
</mxfile>
